inDegrees=no
num_controls=7
num_derivatives=13
num_iterations=57
num_multipliers=7
num_parameters=0
num_slacks=7
num_states=26
objective=0.431794
objective_accelerations=0.051831
objective_balance=0.006798
objective_effort=0.032633
objective_height=0.339389
objective_ligament=0.001143
solver_duration=885.693557
status=Solve_Succeeded
success=true
DataType=double
version=3
OpenSimVersion=4.5
endheader
time	/jointset/ground_pelvis/pelvis_tilt/value	/jointset/ground_pelvis/pelvis_tx/value	/jointset/ground_pelvis/pelvis_ty/value	/jointset/hip_l/hip_flexion_l/value	/jointset/hip_l/hip_adduction_l/value	/jointset/hip_l/hip_rotation_l/value	/jointset/back/lumbar_extension/value	/jointset/patellofemoral_l/patellar_flexion_l/value	/jointset/knee_l/knee_flexion_l/value	/jointset/knee_l/knee_adduction_l/value	/jointset/knee_l/knee_rotation_l/value	/jointset/ankle_l/ankle_angle_l/value	/jointset/subtalar_l/subtalar_angle_l/value	/jointset/ground_pelvis/pelvis_tilt/speed	/jointset/ground_pelvis/pelvis_tx/speed	/jointset/ground_pelvis/pelvis_ty/speed	/jointset/hip_l/hip_flexion_l/speed	/jointset/hip_l/hip_adduction_l/speed	/jointset/hip_l/hip_rotation_l/speed	/jointset/back/lumbar_extension/speed	/jointset/patellofemoral_l/patellar_flexion_l/speed	/jointset/knee_l/knee_flexion_l/speed	/jointset/knee_l/knee_adduction_l/speed	/jointset/knee_l/knee_rotation_l/speed	/jointset/ankle_l/ankle_angle_l/speed	/jointset/subtalar_l/subtalar_angle_l/speed	/forceset/tau_hip_flexion_l	/forceset/tau_hip_adduction_l	/forceset/tau_hip_rotation_l	/forceset/tau_knee_flexion_l	/forceset/tau_ankle_angle_l	/forceset/tau_subtalar_angle_l	/forceset/tau_lumbar_extension	lambda_cid13_p0	lambda_cid13_p1	lambda_cid13_p2	lambda_cid13_p3	lambda_cid13_p4	lambda_cid13_p5	lambda_cid14_p0	/jointset/ground_pelvis/pelvis_tilt/accel	/jointset/ground_pelvis/pelvis_tx/accel	/jointset/ground_pelvis/pelvis_ty/accel	/jointset/hip_l/hip_flexion_l/accel	/jointset/hip_l/hip_adduction_l/accel	/jointset/hip_l/hip_rotation_l/accel	/jointset/back/lumbar_extension/accel	/jointset/patellofemoral_l/patellar_flexion_l/accel	/jointset/knee_l/knee_flexion_l/accel	/jointset/knee_l/knee_adduction_l/accel	/jointset/knee_l/knee_rotation_l/accel	/jointset/ankle_l/ankle_angle_l/accel	/jointset/subtalar_l/subtalar_angle_l/accel	gamma_cid13_p0	gamma_cid13_p1	gamma_cid13_p2	gamma_cid13_p3	gamma_cid13_p4	gamma_cid13_p5	gamma_cid14_p0
0	-0.1563442440410399	0.05715139406400691	0.8978722371096182	0.3774924667018715	-0.260940776288847	-0.2418040191041973	-0.01265067647494873	0.03223648243721246	0.03223648243721463	-0.1745327390248786	0.1447906184036101	-0.04231377076293093	-0.01142926913571432	0	0	0	0	0	0	0	0	0	0	0	0	0	0.1193670097589002	-0.01621350169863327	-0.04114696637789737	-0.2681359972189195	0.2792389523608997	-0.08185701012075186	-0.06960610964965375	46.52768403637488	21.32362841048898	3.143074395045741	-3.133124478945021	-587.6951183378283	-28.58364936256886	-38.17679811697482	-2.658704968747711	-1.792770483448769	-0.9963124384073637	11.32162367548697	-1.266172904079865	3.431059089824448	-5.476340724398572	10.84994200461386	10.84994200461437	0.1904119903097816	0.3318276932466763	2.435420322488348	-0.7323604573377073	1.872291572142284e-08	2.444194658728488e-07	-4.448014458793163e-08	-3.832747439092406e-08	1.917401148973915e-07	1.686196560763116e-07	1.462486800511782e-08
0.01	-0.1564728984484834	0.05706670009990715	0.8978238227764324	0.378041000746529	-0.2610043734988748	-0.2416327573162623	-0.01292345598597247	0.03276736630078299	0.03276736630079363	-0.1745263345687799	0.1448039412056514	-0.04219065871043937	-0.0114658337162958	-0.02575349553903702	-0.01647668926203398	-0.009628180778804899	0.1089032110009811	-0.01272345753721871	0.03412263919912788	-0.05399414972657044	0.1057629152600303	0.1057629152600339	0.001142853557705769	0.002677176029844036	0.02502576419277442	-0.007222952816404679	0.1273159968995838	-0.02795073945335483	-0.04426650848953589	-0.2904896779734465	0.3165831421514126	-0.08076764170054759	-0.07322315325286761	58.63464374168104	19.16134793968563	2.99586610990623	-15.22972766881978	-590.184723366852	-34.20731182418371	-38.19259122919913	-2.537073554420034	-1.505810279453438	-0.9378296709448014	10.55412438993988	-1.276056506562389	3.38342395380183	-5.276689224590072	10.37738474346608	10.37738474346617	0.0555446817479841	0.2375736820803739	2.596661879894083	-0.7038017539008898	-5.114116894707886e-08	1.673312990874217e-07	1.011203797907489e-07	1.954953865243591e-08	-5.35360789654148e-08	3.171248137391273e-08	-1.360932654844836e-08
0.02	-0.1568597681529255	0.05683110081681252	0.8976807748807907	0.3796544578167052	-0.2611953301498803	-0.2411241576125752	-0.01371932441982871	0.03434346300831519	0.03434346300831612	-0.1745126370481407	0.1448444179928338	-0.04180518753357924	-0.01157193563706346	-0.05164305939553992	-0.03018106379897237	-0.01892671249113764	0.2129846051034107	-0.02547188819524356	0.06746758315204725	-0.104617784565274	0.2090425687907898	0.2090425687907861	0.001458612845269935	0.005430797028775792	0.05247182487442378	-0.01390746803718364	0.1352649840403777	-0.03968797720801371	-0.04738605060124088	-0.3128433587279448	0.3539273319419403	-0.0796782732802775	-0.07684019685600016	70.83168276315496	16.98473508509971	2.849303360534958	-27.54926642207378	-591.3748900142776	-39.70519821867524	-38.23902070447997	-2.685918632240805	-1.238307538429672	-0.9303826251129728	10.35726029577653	-1.271167528241644	3.275520040582721	-4.802237746825038	10.35328965875971	10.35328965875804	0.02499313628038171	0.3471166870642883	2.919479620263156	-0.6246729382131403	-1.210052536155806e-07	9.024313230199461e-08	2.467209041694295e-07	7.742655169579588e-08	-2.988122728282211e-07	-1.051946933284862e-07	-4.184352110201454e-08
0.03	-0.1575044114548689	0.0564671967158832	0.8974458410464031	0.3822891797117161	-0.2615126298263432	-0.2402863907354154	-0.01500725973544503	0.03693943013158592	0.03693943013159808	-0.1744979080723832	0.1449126616543578	-0.04113984883011394	-0.01174256237922459	-0.07710347271063293	-0.04264822523011418	-0.02805471726361915	0.3135710276920526	-0.03786732484733291	0.09992288463994199	-0.1526993827822148	0.3096648765277795	0.3096648765277713	0.001546563782987561	0.008202577846657842	0.0803247266322813	-0.02016767922384909	0.1259300543235861	-0.03382065327955578	-0.04524378484880098	-0.2987920543971707	0.3326603318491171	-0.07759394726873318	-0.07015564092405345	64.04331089727523	17.09004651040521	3.035899457004599	-22.30429592675553	-591.112172690144	-38.22371095809077	-38.31435322127204	-2.448791836677529	-1.258175052891811	-0.9032695884142017	9.851006545743736	-1.20566133963583	3.20606259245626	-4.770636492371562	9.843812913448062	9.843812913448287	0.009647718835998291	0.2398703636305886	2.677508197745471	-0.6192062316398345	-1.340258686613833e-07	1.352809811912364e-07	2.406774082675843e-07	9.422252485176882e-08	-3.982631862937196e-07	-5.351593078285083e-08	-4.043753618238819e-08
0.04	-0.15839819672109	0.05597717007915546	0.897119775127269	0.3859181004936656	-0.261950269790514	-0.239128965365462	-0.01676791415988706	0.04052704264869045	0.04052704264868964	-0.1744805092578987	0.1450081554409365	-0.04020411856023075	-0.01197429343780201	-0.1014714522470125	-0.05540557095865722	-0.03715312944043948	0.4118243824941322	-0.04953994573715622	0.1313992817103704	-0.1991616063288572	0.4073716475559383	0.4073716475559238	0.001992580573432033	0.01088082204375945	0.1065501381580678	-0.02612833132038586	0.1165951246067365	-0.02795332935109027	-0.04310151909650087	-0.2847407500664362	0.3113933317562719	-0.07550962125718449	-0.06347108499213035	57.33890588848219	17.18673309566	3.216933657506612	-17.28222838808533	-589.6534258195815	-36.62196068998222	-38.41691977690759	-2.467431876497962	-1.296344397909961	-0.9244641059807563	9.890646738464007	-1.126604375788699	3.079739157089434	-4.4783628127652	9.770182316993496	9.770182316991471	0.09660630682523876	0.3284093629082385	2.593981573848825	-0.5647611201876848	-1.458744534056872e-07	1.828368922593373e-07	2.315072315352129e-07	1.101714662574864e-07	-4.947073929469024e-07	2.051201602950197e-09	-3.842041354166508e-08
0.05	-0.15953093221145	0.05535959671585336	0.8967027140828617	0.3905173830997213	-0.2625013419386669	-0.2376614492582401	-0.0189836593125892	0.04507813133964968	0.04507813133965449	-0.1744576166175633	0.1451302037293615	-0.0390120361680647	-0.01226396859048958	-0.1249226173446359	-0.06800699228763632	-0.04626155584174661	0.5075049751261173	-0.0605914773694509	0.1619714571512438	-0.2436194787979282	0.5023957001693915	0.5023957001694634	0.002549604106321639	0.01350955133303014	0.1317955942581779	-0.03175070916235546	0.1109212462887786	-0.02599264657570436	-0.04226454756648187	-0.2803091911905429	0.3054482284756802	-0.07396703285508388	-0.05880296988622739	55.56376979504023	16.80846390754194	3.2990969968286	-16.84136183819171	-588.9615547415615	-36.45991856566292	-38.5443132531052	-2.261011539490129	-1.226702425182267	-0.9045030881692659	9.327673781928421	-1.082010044499493	3.026052683896423	-4.374307651683552	9.300965831179015	9.300965831193245	0.0298495880568069	0.2271825270957714	2.479206017422446	-0.5526311118015289	-1.685219016963888e-07	1.733193590010849e-07	2.857146691516121e-07	1.269248613233365e-07	-5.777227304397304e-07	-2.537135321737269e-08	-4.809190583549888e-08
0.06	-0.1608935898954212	0.05461907685430335	0.8961944745382472	0.3960576532833679	-0.2631604459006525	-0.2358921922073504	-0.02163294482752655	0.05056595037628239	0.05056595037628276	-0.1744302338995691	0.1452779548737037	-0.03756962353703291	-0.01260819852071707	-0.1474558909660317	-0.07999487060824131	-0.05538882948186666	0.6000218980126115	-0.07114630850374058	0.1917474704445211	-0.2858696787752042	0.5947177166891504	0.5947177166893163	0.002890596100641975	0.01602139322867414	0.1566161859314963	-0.0370392868283277	0.1052473679708921	-0.02403196380029261	-0.04142757603651837	-0.2758776323146257	0.2995031251950959	-0.07242444445295557	-0.05413485478026842	53.86306586494953	16.42156947645735	3.377604483701876	-16.60071521235848	-587.2078400592062	-36.18919671127335	-38.69387531108644	-2.283853581252304	-1.17363579623517	-0.9282335537433525	9.257912789365768	-1.027264276187892	2.920506727570201	-4.036828314406051	9.229775098254626	9.229775098254136	0.05339999911100991	0.3050318841829319	2.509008688490411	-0.4980010849884171	-1.916240389785177e-07	1.61398733350144e-07	3.425906378984859e-07	1.437121281222449e-07	-6.601726418626486e-07	-5.628821065690079e-08	-5.825555033710349e-08
0.07000000000000001	-0.1624776982651272	0.05376125317337715	0.8955946387020909	0.4025088539904903	-0.2639220381165321	-0.2338294681208964	-0.02469406343986016	0.05696355968283465	0.05696355968283853	-0.1743996607530768	0.1454504995110389	-0.03588173946986756	-0.01300324821285312	-0.1692424861839583	-0.09151391887991299	-0.06459586195938107	0.6897629452588583	-0.08103188751550668	0.2206405462936854	-0.3260636359697098	0.6842948578512255	0.6842948578511169	0.003264367642628652	0.01846366537157755	0.1808051544024264	-0.04188024062789492	0.0991043864143528	-0.02134012622562768	-0.0404216711261231	-0.2706262393296729	0.2911098666008317	-0.07066296337395493	-0.04933865109935639	51.33120325692939	16.07110877730226	3.466327519193512	-15.24011799943273	-585.8625819935197	-35.7694286775823	-38.86254833121352	-2.10757615594909	-1.132618392219059	-0.9196997601991004	8.763884175639609	-0.9482083891947388	2.850136813143203	-3.967118263526259	8.745302383920068	8.74530238387924	0.03547570424537157	0.2101945803845399	2.350507107806044	-0.4636433623478142	-1.987742042239079e-07	1.665336554125578e-07	3.487336781794482e-07	1.540676314261334e-07	-7.047666701240066e-07	-4.815363971546823e-08	-5.878844249833933e-08
